<?xml version="1.0" encoding="utf-8"?>
<!-- Svg Vector Icons : http://www.onlinewebfonts.com/icon -->
<!DOCTYPE svg PUBLIC "-//W3C//DTD SVG 1.1//EN" "http://www.w3.org/Graphics/SVG/1.1/DTD/svg11.dtd">
<svg version="1.1" xmlns="http://www.w3.org/2000/svg" xmlns:xlink="http://www.w3.org/1999/xlink" x="0px" y="0px" viewBox="0 0 1000 1000" enable-background="new 0 0 1000 1000" xml:space="preserve">
<metadata> Svg Vector Icons : http://www.onlinewebfonts.com/icon </metadata>
<g><g transform="translate(0.000000,511.000000) scale(0.100000,-0.100000)"><path d="M100,110V-4785h4899h4901L5005,110c-2691.3,2693.3-4897,4895-4899,4895C102,5005,100,2803.3,100,110z M1471.4,3187.7c554.9-554.9,1006.7-1014.7,1006.7-1026.6c0-9.9-158.5-178.4-350.8-370.6l-352.8-352.8l118.9-118.9l118.9-118.9l360.7,360.7l362.7,362.7l241.8-243.8l243.8-241.8l-243.8-243.8l-241.8-241.8l118.9-118.9l118.9-118.9l233.8,233.8c126.8,126.8,241.8,231.9,251.7,231.9c11.9,0,122.9-103.1,247.7-227.9l227.9-227.9l-362.7-362.7L3211.4,1l118.9-118.9l118.9-118.9L3802,115.9c192.2,192.2,360.7,350.8,370.6,350.8c11.9,0,122.9-103.1,247.7-227.9l227.9-227.9l-233.9-233.9c-126.8-126.8-231.9-241.8-231.9-251.7c0-25.8,202.1-227.9,227.9-227.9c9.9,0,124.8,105,251.7,231.9L4896-236.8l227.9-227.9c124.8-124.8,227.9-235.8,227.9-247.7c0-9.9-158.5-178.4-350.8-370.6l-352.8-352.8l118.9-118.9l118.9-118.9l360.7,360.7l362.7,362.7l227.9-227.9c124.9-124.9,227.9-235.8,227.9-247.7c0-9.9-105-124.8-231.9-251.7l-233.8-233.8l118.9-118.9l118.9-118.9l241.8,241.8l243.8,243.8l241.8-243.8l243.8-241.8l-362.7-362.7L6085-2872.6l118.9-118.9l118.9-118.9l362.7,362.7l360.7,360.7l1016.7-1016.7c556.9-556.9,1014.7-1020.6,1014.7-1030.5c0-7.9-1944.1-13.9-4320.3-13.9H436.9v4320.3c0,2376.2,5.9,4320.3,13.9,4320.3C460.7,4192.5,918.5,3740.7,1471.4,3187.7z"/><path d="M1447.6-1154.4c0-1793.5,5.9-2267.2,25.8-2273.1c11.9-5.9,1034.5-7.9,2269.2-5.9l2243.4,5.9L3716.8-1158.3L1447.6,1110.8V-1154.4z M3496.8-1400.1l1686.5-1690.5l-1674.6-5.9c-921.5-2-1686.5,0-1698.4,5.9c-19.8,5.9-25.8,364.6-25.8,1694.4c0,925.5,5.9,1684.5,13.9,1684.5C1804.3,288.4,2569.3-472.6,3496.8-1400.1z"/></g></g>
</svg>